<svg xmlns="http://www.w3.org/2000/svg" enable-background="new 0 0 32 32" viewBox="0 0 32 32"><g display="none"><path fill="#00D09C" d="M16,0C7.178,0,0,7.178,0,16c0,8.822,7.178,16,16,16s16-7.178,16-16   C32,7.178,24.822,0,16,0L16,0z"/><path d="M16,1.625C8.074,1.625,1.625,8.074,1.625,16c0,7.926,6.449,14.375,14.375,14.375S30.375,23.926,30.375,16   C30.375,8.074,23.926,1.625,16,1.625L16,1.625z"/><path fill="#FFF" d="M16,1.625L16,1.625C8.074,1.625,1.625,8.074,1.625,16   c0,7.926,6.449,14.375,14.375,14.375V1.625z" opacity=".22"/></g><g display="none"><path d="M16.482,0.567c-8.376,0-15.191,6.8-15.191,15.159c0,8.358,6.815,15.158,15.191,15.158s15.191-6.8,15.191-15.158    C31.673,7.367,24.859,0.567,16.482,0.567L16.482,0.567z"/><path fill="none" d="M16.482,0.567c-8.376,0-15.191,6.8-15.191,15.159c0,8.358,6.815,15.158,15.191,15.158     s15.191-6.8,15.191-15.158C31.673,7.367,24.859,0.567,16.482,0.567L16.482,0.567z"/><path fill="red" d="M18.491,2.071c0.737,0.035,1.401,0.17,2,0.228c1.476,0.615,2.579,1.054,3.671,1.629      c1.056,0.601,2.184,1.26,3.219,2.603c0.946,1.155,1.669,2.225,2.196,3.379c0.51,1.154,0.931,2.36,1.042,3.799      c0.194,0.208,0.33,0.67,0.366,1.282c0.087,0.61,0.011,1.361-0.054,2.144c-0.202,1.572-0.785,3.173-1.013,4.253      c-0.547,1.346-0.771,2.167-0.135,1.212c-1.012,1.815-0.96,1.207-1.913,2.634c0.015,0.009,0.195-0.581,0.195-0.581      c-0.354,0.435-0.883,0.785-1.337,1.352l-0.471,0.704c-0.472,0.342-0.799,0.579-1.12,0.812c-0.33,0.27-0.655,0.505-0.994,0.732      c-0.333,0.236-0.669,0.486-1.077,0.68c-0.401,0.205-0.833,0.438-1.372,0.574c1.412-0.354-0.577,0.338-0.375,0.443      c-0.336,0.083-1.665,0.325-1.229,0.167c-1.816,0.384-3.58,0.81-4.644,0.405c0,0-0.698,0.056-0.697,0.036      c-1.195-0.032-2.1-0.392-3.103-0.787l-0.179,0.056c-0.711-0.155-1.92-0.743-2.402-1.158c-1.615-0.967-3.578-2.358-4.869-3.913      c-0.566-0.815-0.686-1.069-0.907-1.237c-0.197-0.183-0.432-0.32-0.851-1.134c-0.248-0.525-0.522-1.267-0.788-1.955      c-0.208-0.705-0.385-1.366-0.371-1.727c0.386,1.564,0.733,1.684,1.314,3.236c-0.09-0.307,0.242,0.313,0.531,0.83      c0.314,0.505,0.618,0.885,0.298,0.227c-0.879-1.311-1.518-3.004-1.815-4.72c-0.17-0.858-0.201-1.721-0.257-2.55      c0.027-0.828,0.004-1.625,0.086-2.358c0.135,0.129,0.293-0.759,0.601-1.802c0.129-0.528,0.366-1.071,0.525-1.582      c0.2-0.495,0.409-0.926,0.534-1.221L3.207,8.73c0.295-0.472,0.546-0.871,0.836-1.335C4.388,6.963,4.691,6.394,5.26,5.735      c1.362-1.57,3.063-2.838,4.718-3.432c1.192-0.491,2.522-0.907,3.705-1.237c1.188-0.312,2.236-0.463,2.8-0.599      c-1.614-0.114-3.18,0.192-4.573,0.619C10.531,1.578,9.296,2.11,8.147,2.569c1.998-1.085,2.118-1.167,3.726-1.925      c0,0-0.23,0.045-0.458,0.103c-0.229,0.056-0.458,0.113-0.458,0.113l0.699-0.324c-0.411,0.012,0.54-0.375,0.403-0.437      c-0.03-0.092-2.678,0.957-2.653,1.013c1.415-0.571,0.55-0.021,0.212,0.271c0,0-0.328,0.147-0.657,0.294      c-0.321,0.161-0.63,0.347-0.63,0.347c0.315-0.131,1.089-0.54,0.233,0.054c-0.25,0.139-0.53,0.321-0.82,0.502      C7.462,2.768,7.189,2.987,6.909,3.142c0,0,0.772-0.882,0.793-0.858c-1.337,1.132-2.657,1.682-3.696,3.17L3.484,5.736      c0,0-0.252,0.344-0.504,0.688C2.734,6.771,2.529,7.146,2.529,7.146l0.028-0.21c0,0-0.275,0.435-0.549,0.869      C1.761,8.256,1.536,8.72,1.536,8.72c-0.463,1.014-0.332,1.241-0.343,1.443c-0.316,0.788-0.433,1.599-0.582,1.915l0.102-0.994      l-0.275,0.876c0.202-0.596-0.11,0.759-0.048,0.996c-0.085,0.503-0.143,0.843-0.185,1.092c-0.021,0.246-0.035,0.399-0.047,0.539      C0.13,14.851,0.094,15.018,0,15.661c0.078,0.664,0.071,1.406,0.139,1.986c0.079,0.579,0.15,1.002,0.252,1.021      c0.288,2.415,1.388,4.853,2.759,6.708l0.707,0.735c0.84,1.075,1.576,1.757,2.374,2.366c0.814,0.59,1.669,1.144,2.935,1.762      l-0.227-0.045c0,0,0.365,0.133,0.73,0.265c0.181,0.065,0.362,0.13,0.498,0.179c0.14,0.037,0.234,0.061,0.234,0.061      c0.484,0.208,0.904,0.371,1.296,0.497c0.392,0.085,0.767,0.166,1.152,0.25c0.376,0.095,0.776,0.119,1.223,0.19      c0.222,0.037,0.456,0.076,0.718,0.12c0.25,0.027,0.523,0.057,0.841,0.092c0.329,0.024,0.635,0.055,0.922,0.057      c0.286-0.016,0.549-0.031,0.8-0.046c0.495-0.031,0.914-0.084,1.27-0.19c0.715-0.18,1.192-0.37,1.563-0.62      c1.192-0.365,2.693-0.823,3.712-1.319l-0.623,0.403l0.896-0.323c1.367-0.894,1.542-0.825,3.083-2.301      c2.16-1.972,1.432-2.024,2.061-3.041c0,0,0.112-0.128,0.26-0.334c0.153-0.205,0.357-0.479,0.56-0.753      c0.216-0.269,0.364-0.578,0.506-0.795c0.133-0.222,0.222-0.37,0.222-0.37l-0.077,0.031c0.225-0.786,0.241-1.104,0.464-1.644      c0.117-0.268,0.197-0.62,0.343-1.125c0.167-0.501,0.266-1.186,0.406-2.127l-0.192,0.152c0.293-1.25,0.067-1.818-0.047-3.428      c-0.032-0.196-0.062-0.496-0.095-0.858c-0.021-0.365-0.075-0.787-0.18-1.22c-0.148-0.88-0.497-1.797-0.855-2.405      c-0.28-0.658-0.525-1.24-0.865-1.704c-0.309-0.482-0.624-0.895-0.98-1.258c-0.332-0.38-0.677-0.727-1.064-1.068      c-0.193-0.186-0.38-0.367-0.57-0.55c-0.21-0.176-0.424-0.364-0.644-0.569c-1.011-1.065-2.067-1.352-2.158-1.723l0.226,0.134      l-0.325-0.519l-0.155,0.137c-0.725-0.518-1.913-0.966-2.568-1.405c0,0-0.514-0.106-1.039-0.128      c-0.258-0.02-0.516-0.04-0.71-0.055c-0.191-0.019-0.321-0.016-0.321-0.016c0.492,0.076,1.021,0.244,1.55,0.403l-0.037-0.069      c0.501,0.164,1.732,0.564,2.232,0.937l-0.686-0.259c0.735,0.406,0.066,0.186-0.153,0.114c-1.527-0.664-1.159-0.363-2.386-0.631      c-0.265-0.107-0.791-0.234-0.584-0.249c-0.373-0.027-1.035-0.192-1.628-0.24c-0.594-0.037-1.104-0.05-1.137,0.047      c-0.057-0.014-0.093-0.022-0.147-0.035c0.124,0.18,0.391,0.367,0.744,0.556C17.581,1.627,18.021,1.814,18.491,2.071z"/></g><g display="none"><path d="M16.482,0.567c-8.376,0-15.191,6.8-15.191,15.159c0,8.358,6.815,15.158,15.191,15.158s15.191-6.8,15.191-15.158    C31.673,7.367,24.859,0.567,16.482,0.567L16.482,0.567z"/><path fill="none" d="M16.482,0.567c-8.376,0-15.191,6.8-15.191,15.159c0,8.358,6.815,15.158,15.191,15.158     s15.191-6.8,15.191-15.158C31.673,7.367,24.859,0.567,16.482,0.567L16.482,0.567z"/><path fill="#999" d="M18.491,2.071c0.737,0.035,1.401,0.17,2,0.228c1.476,0.615,2.579,1.054,3.671,1.629      c1.056,0.601,2.184,1.26,3.219,2.603c0.946,1.155,1.669,2.225,2.196,3.379c0.51,1.154,0.931,2.36,1.042,3.799      c0.194,0.208,0.33,0.67,0.366,1.282c0.087,0.61,0.011,1.361-0.054,2.144c-0.202,1.572-0.785,3.173-1.013,4.253      c-0.547,1.346-0.771,2.167-0.135,1.212c-1.012,1.815-0.96,1.207-1.913,2.634c0.015,0.009,0.195-0.581,0.195-0.581      c-0.354,0.435-0.883,0.785-1.337,1.352l-0.471,0.704c-0.472,0.342-0.799,0.579-1.12,0.812c-0.33,0.27-0.655,0.505-0.994,0.732      c-0.333,0.236-0.669,0.486-1.077,0.68c-0.401,0.205-0.833,0.438-1.372,0.574c1.412-0.354-0.577,0.338-0.375,0.443      c-0.336,0.083-1.665,0.325-1.229,0.167c-1.816,0.384-3.58,0.81-4.644,0.405c0,0-0.698,0.056-0.697,0.036      c-1.195-0.032-2.1-0.392-3.103-0.787l-0.179,0.056c-0.711-0.155-1.92-0.743-2.402-1.158c-1.615-0.967-3.578-2.358-4.869-3.913      c-0.566-0.815-0.686-1.069-0.907-1.237c-0.197-0.183-0.432-0.32-0.851-1.134c-0.248-0.525-0.522-1.267-0.788-1.955      c-0.208-0.705-0.385-1.366-0.371-1.727c0.386,1.564,0.733,1.684,1.314,3.236c-0.09-0.307,0.242,0.313,0.531,0.83      c0.314,0.505,0.618,0.885,0.298,0.227c-0.879-1.311-1.518-3.004-1.815-4.72c-0.17-0.858-0.201-1.721-0.257-2.55      c0.027-0.828,0.004-1.625,0.086-2.358c0.135,0.129,0.293-0.759,0.601-1.802c0.129-0.528,0.366-1.071,0.525-1.582      c0.2-0.495,0.409-0.926,0.534-1.221L3.207,8.73c0.295-0.472,0.546-0.871,0.836-1.335C4.388,6.963,4.691,6.394,5.26,5.735      c1.362-1.57,3.063-2.838,4.718-3.432c1.192-0.491,2.522-0.907,3.705-1.237c1.188-0.312,2.236-0.463,2.8-0.599      c-1.614-0.114-3.18,0.192-4.573,0.619C10.531,1.578,9.296,2.11,8.147,2.569c1.998-1.085,2.118-1.167,3.726-1.925      c0,0-0.23,0.045-0.458,0.103c-0.229,0.056-0.458,0.113-0.458,0.113l0.699-0.324c-0.411,0.012,0.54-0.375,0.403-0.437      c-0.03-0.092-2.678,0.957-2.653,1.013c1.415-0.571,0.55-0.021,0.212,0.271c0,0-0.328,0.147-0.657,0.294      c-0.321,0.161-0.63,0.347-0.63,0.347c0.315-0.131,1.089-0.54,0.233,0.054c-0.25,0.139-0.53,0.321-0.82,0.502      C7.462,2.768,7.189,2.987,6.909,3.142c0,0,0.772-0.882,0.793-0.858c-1.337,1.132-2.657,1.682-3.696,3.17L3.484,5.736      c0,0-0.252,0.344-0.504,0.688C2.734,6.771,2.529,7.146,2.529,7.146l0.028-0.21c0,0-0.275,0.435-0.549,0.869      C1.761,8.256,1.536,8.72,1.536,8.72c-0.463,1.014-0.332,1.241-0.343,1.443c-0.316,0.788-0.433,1.599-0.582,1.915l0.102-0.994      l-0.275,0.876c0.202-0.596-0.11,0.759-0.048,0.996c-0.085,0.503-0.143,0.843-0.185,1.092c-0.021,0.246-0.035,0.399-0.047,0.539      C0.13,14.851,0.094,15.018,0,15.661c0.078,0.664,0.071,1.406,0.139,1.986c0.079,0.579,0.15,1.002,0.252,1.021      c0.288,2.415,1.388,4.853,2.759,6.708l0.707,0.735c0.84,1.075,1.576,1.757,2.374,2.366c0.814,0.59,1.669,1.144,2.935,1.762      l-0.227-0.045c0,0,0.365,0.133,0.73,0.265c0.181,0.065,0.362,0.13,0.498,0.179c0.14,0.037,0.234,0.061,0.234,0.061      c0.484,0.208,0.904,0.371,1.296,0.497c0.392,0.085,0.767,0.166,1.152,0.25c0.376,0.095,0.776,0.119,1.223,0.19      c0.222,0.037,0.456,0.076,0.718,0.12c0.25,0.027,0.523,0.057,0.841,0.092c0.329,0.024,0.635,0.055,0.922,0.057      c0.286-0.016,0.549-0.031,0.8-0.046c0.495-0.031,0.914-0.084,1.27-0.19c0.715-0.18,1.192-0.37,1.563-0.62      c1.192-0.365,2.693-0.823,3.712-1.319l-0.623,0.403l0.896-0.323c1.367-0.894,1.542-0.825,3.083-2.301      c2.16-1.972,1.432-2.024,2.061-3.041c0,0,0.112-0.128,0.26-0.334c0.153-0.205,0.357-0.479,0.56-0.753      c0.216-0.269,0.364-0.578,0.506-0.795c0.133-0.222,0.222-0.37,0.222-0.37l-0.077,0.031c0.225-0.786,0.241-1.104,0.464-1.644      c0.117-0.268,0.197-0.62,0.343-1.125c0.167-0.501,0.266-1.186,0.406-2.127l-0.192,0.152c0.293-1.25,0.067-1.818-0.047-3.428      c-0.032-0.196-0.062-0.496-0.095-0.858c-0.021-0.365-0.075-0.787-0.18-1.22c-0.148-0.88-0.497-1.797-0.855-2.405      c-0.28-0.658-0.525-1.24-0.865-1.704c-0.309-0.482-0.624-0.895-0.98-1.258c-0.332-0.38-0.677-0.727-1.064-1.068      c-0.193-0.186-0.38-0.367-0.57-0.55c-0.21-0.176-0.424-0.364-0.644-0.569c-1.011-1.065-2.067-1.352-2.158-1.723l0.226,0.134      l-0.325-0.519l-0.155,0.137c-0.725-0.518-1.913-0.966-2.568-1.405c0,0-0.514-0.106-1.039-0.128      c-0.258-0.02-0.516-0.04-0.71-0.055c-0.191-0.019-0.321-0.016-0.321-0.016c0.492,0.076,1.021,0.244,1.55,0.403l-0.037-0.069      c0.501,0.164,1.732,0.564,2.232,0.937l-0.686-0.259c0.735,0.406,0.066,0.186-0.153,0.114c-1.527-0.664-1.159-0.363-2.386-0.631      c-0.265-0.107-0.791-0.234-0.584-0.249c-0.373-0.027-1.035-0.192-1.628-0.24c-0.594-0.037-1.104-0.05-1.137,0.047      c-0.057-0.014-0.093-0.022-0.147-0.035c0.124,0.18,0.391,0.367,0.744,0.556C17.581,1.627,18.021,1.814,18.491,2.071z"/></g><path fill="#FFF" d="M15.338,15.833c-0.421-0.389-0.888-0.935-1.091-1.419c-0.031-0.062-0.093-0.218,0-0.343    c0.187-0.249,0.218-0.265,0.421-0.499c0.14-0.172,0.249-0.327,0.203-0.468l-0.701-1.824c-0.063-0.125-0.249-0.14-0.468-0.156    c-0.187,0-0.389,0-0.53,0.031c-0.312,0.109-0.95,0.951-1.028,1.559c-0.172,1.325,1.028,3.087,2.228,4.178    c1.2,1.107,3.054,2.152,4.363,1.855c0.608-0.14,1.387-0.842,1.449-1.169c0.031-0.14,0.016-0.343-0.016-0.53    c-0.016-0.218-0.062-0.374-0.187-0.436l-1.589-0.733c-0.141-0.078-0.281-0.016-0.421,0.156c-0.171,0.234-0.25,0.327-0.452,0.577    c-0.109,0.14-0.187,0.234-0.311,0.249c-0.141,0.031-0.327-0.047-0.359-0.047C16.35,16.644,15.774,16.223,15.338,15.833    L15.338,15.833z M10.102,21.431l0.904-2.292C10.008,17.985,9.4,16.472,9.4,14.82c0-3.648,2.961-6.595,6.608-6.595    c3.646,0,6.591,2.947,6.591,6.595c0,3.648-2.945,6.611-6.591,6.611c-1.465,0-2.805-0.468-3.896-1.278L10.102,21.431z     M8.995,19.185l-1.247,4.989l4.457-2.027c1.138,0.592,2.431,0.936,3.803,0.936c4.55,0,8.243-3.695,8.243-8.264    c0-4.552-3.694-8.248-8.243-8.248c-4.566,0-8.259,3.695-8.259,8.248C7.749,16.426,8.216,17.923,8.995,19.185L8.995,19.185z" display="none"/><g display="none"><path fill="#DDD" d="M16,0C7.178,0,0,7.178,0,16c0,8.822,7.178,16,16,16s16-7.178,16-16   C32,7.178,24.822,0,16,0L16,0z"/><path d="M16,1.625C8.074,1.625,1.625,8.074,1.625,16c0,7.926,6.449,14.375,14.375,14.375S30.375,23.926,30.375,16   C30.375,8.074,23.926,1.625,16,1.625L16,1.625z"/><path fill="#FFF" d="M16,1.625L16,1.625C8.074,1.625,1.625,8.074,1.625,16   c0,7.926,6.449,14.375,14.375,14.375V1.625z" opacity=".22"/></g><path fill="#FFF" d="M15.338,15.833c-0.421-0.389-0.888-0.935-1.091-1.419c-0.031-0.062-0.093-0.218,0-0.343    c0.187-0.249,0.218-0.265,0.421-0.499c0.14-0.172,0.249-0.327,0.203-0.468l-0.701-1.824c-0.063-0.125-0.249-0.14-0.468-0.156    c-0.187,0-0.389,0-0.53,0.031c-0.312,0.109-0.95,0.951-1.028,1.559c-0.172,1.325,1.028,3.087,2.228,4.178    c1.2,1.107,3.054,2.152,4.363,1.855c0.608-0.14,1.387-0.842,1.449-1.169c0.031-0.14,0.016-0.343-0.016-0.53    c-0.016-0.218-0.062-0.374-0.187-0.436l-1.589-0.733c-0.141-0.078-0.281-0.016-0.421,0.156c-0.171,0.234-0.25,0.327-0.452,0.577    c-0.109,0.14-0.187,0.234-0.311,0.249c-0.141,0.031-0.327-0.047-0.359-0.047C16.35,16.644,15.774,16.223,15.338,15.833    L15.338,15.833z M10.102,21.431l0.904-2.292C10.008,17.985,9.4,16.472,9.4,14.82c0-3.648,2.961-6.595,6.608-6.595    c3.646,0,6.591,2.947,6.591,6.595c0,3.648-2.945,6.611-6.591,6.611c-1.465,0-2.805-0.468-3.896-1.278L10.102,21.431z     M8.995,19.185l-1.247,4.989l4.457-2.027c1.138,0.592,2.431,0.936,3.803,0.936c4.55,0,8.243-3.695,8.243-8.264    c0-4.552-3.694-8.248-8.243-8.248c-4.566,0-8.259,3.695-8.259,8.248C7.749,16.426,8.216,17.923,8.995,19.185L8.995,19.185z" display="none"/><g display="none"><linearGradient id="a" x1="16" x2="16" y1="24.175" y2="6.572" gradientUnits="userSpaceOnUse"><stop offset="0" stop-color="#ff2d76"/><stop offset="1" stop-color="#fb0000"/></linearGradient><path fill="url(#a)" d="M15.338,15.833c-0.421-0.389-0.888-0.935-1.091-1.419c-0.031-0.062-0.093-0.218,0-0.343    c0.187-0.249,0.218-0.265,0.421-0.499c0.14-0.172,0.249-0.327,0.203-0.468l-0.701-1.824c-0.063-0.125-0.249-0.14-0.468-0.156    c-0.187,0-0.389,0-0.53,0.031c-0.312,0.109-0.95,0.951-1.028,1.559c-0.172,1.325,1.028,3.087,2.228,4.178    c1.2,1.107,3.054,2.152,4.363,1.855c0.608-0.14,1.387-0.842,1.449-1.169c0.031-0.14,0.016-0.343-0.016-0.53    c-0.016-0.218-0.062-0.374-0.187-0.436l-1.589-0.733c-0.141-0.078-0.281-0.016-0.421,0.156c-0.171,0.234-0.25,0.327-0.452,0.577    c-0.109,0.14-0.187,0.234-0.311,0.249c-0.141,0.031-0.327-0.047-0.359-0.047C16.35,16.644,15.774,16.223,15.338,15.833    L15.338,15.833z M10.102,21.431l0.904-2.292C10.008,17.985,9.4,16.472,9.4,14.82c0-3.648,2.961-6.595,6.608-6.595    c3.646,0,6.591,2.947,6.591,6.595c0,3.648-2.945,6.611-6.591,6.611c-1.465,0-2.805-0.468-3.896-1.278L10.102,21.431z     M8.995,19.185l-1.247,4.989l4.457-2.027c1.138,0.592,2.431,0.936,3.803,0.936c4.55,0,8.243-3.695,8.243-8.264    c0-4.552-3.694-8.248-8.243-8.248c-4.566,0-8.259,3.695-8.259,8.248C7.749,16.426,8.216,17.923,8.995,19.185L8.995,19.185z"/></g><linearGradient id="b" x1="16" x2="16" y1="32" y2="0" gradientUnits="userSpaceOnUse"><stop offset="0" stop-color="#ff2d76"/><stop offset="1" stop-color="#fb0000"/></linearGradient><path fill="url(#b)" d="M14.796,16.836c-0.765-0.708-1.615-1.701-1.983-2.579c-0.057-0.113-0.17-0.397,0-0.623    c0.34-0.454,0.397-0.482,0.765-0.907c0.255-0.312,0.453-0.595,0.368-0.851L12.671,8.56c-0.114-0.227-0.453-0.255-0.85-0.284    c-0.34,0-0.708,0-0.963,0.057c-0.566,0.199-1.728,1.729-1.869,2.835c-0.312,2.409,1.869,5.612,4.051,7.596    c2.182,2.013,5.553,3.912,7.932,3.373c1.105-0.255,2.522-1.53,2.635-2.126c0.057-0.255,0.028-0.623-0.028-0.964    c-0.028-0.396-0.113-0.68-0.341-0.793l-2.889-1.333c-0.256-0.142-0.51-0.028-0.765,0.284c-0.311,0.425-0.454,0.595-0.822,1.049    c-0.198,0.255-0.34,0.425-0.566,0.453c-0.256,0.057-0.595-0.085-0.652-0.085C16.637,18.31,15.589,17.545,14.796,16.836    L14.796,16.836z M5.278,27.011l1.643-4.167c-1.813-2.097-2.918-4.847-2.918-7.851c0-6.632,5.382-11.989,12.012-11.989    c6.629,0,11.983,5.357,11.983,11.989c0,6.633-5.354,12.018-11.983,12.018c-2.663,0-5.1-0.851-7.082-2.324L5.278,27.011z     M3.266,22.93L1,32l8.102-3.685c2.068,1.077,4.419,1.701,6.913,1.701C24.285,30.016,31,23.298,31,14.994    C31,6.718,24.285,0,16.014,0C7.714,0,1,6.718,1,14.993C1,17.913,1.85,20.634,3.266,22.93L3.266,22.93z"/></svg>